<svg width="129" height="130" viewBox="0 0 129 130" fill="none" xmlns="http://www.w3.org/2000/svg">
<g clip-path="url(#clip0_1_282)">
<path opacity="0.4" d="M64.3055 129.189C99.8204 129.189 128.611 100.399 128.611 64.8836C128.611 29.3687 99.8204 0.578125 64.3055 0.578125C28.7906 0.578125 0 29.3687 0 64.8836C0 100.399 28.7906 129.189 64.3055 129.189Z" fill="white"/>
<path opacity="0.3" d="M64.5 117.578C93.4949 117.578 117 94.0731 117 65.0781C117 36.0832 93.4949 12.5781 64.5 12.5781C35.5051 12.5781 12 36.0832 12 65.0781C12 94.0731 35.5051 117.578 64.5 117.578Z" fill="white"/>
<path d="M46 50.3728C46 45.8398 51.0824 43.0676 55.0188 45.4536L79.2452 60.1383C82.9767 62.4001 82.9767 67.715 79.2452 69.9768L55.0188 84.6615C51.0824 87.0475 46 84.2753 46 79.7423V50.3728Z" fill="#141821"/>
</g>
<defs>
<clipPath id="clip0_1_282">
<rect width="129" height="129" fill="white" transform="translate(0 0.578125)"/>
</clipPath>
</defs>
</svg>
